<?xml version="1.0" encoding="UTF-8"?><svg id="Layer_2" xmlns="http://www.w3.org/2000/svg" viewBox="0 0 293.89 162.61"><defs><style>.cls-1{fill:#fff;}.cls-2{fill:#e76025;}.cls-3{fill:#c64627;}.cls-4{fill:#231f20;}</style></defs><g id="Wine_Spot"><path class="cls-2" d="m182.11,5.78c17.08,8.33,28.84,25.86,28.84,46.14,0,28.34-51.31,109.06-51.31,109.06,0,0-51.31-80.72-51.31-109.06,0-19.48,10.86-36.43,26.85-45.12l.59-.03c-.62,2.07-1.5,4.91-2.65,8.33-2.51,7.45-7.78,23.34-5.91,32.76,2.09,10.54,15.11,22.24,28.75,23.7l.28.07v1.1c.77.6,1.23,1.37,1.23,2.21v34.11c0,.84-.46,1.6-1.23,2.21l-.2.9h-9.3c-1.44,0-11.29,1.32-11.29,2.95s-.27,2.95,1.17,2.95h45.4c1.44,0,1.17-1.32,1.17-2.95s-9.85-2.95-11.29-2.95h-9.17l-.32-.9c-.77-.6-1.23-1.37-1.23-2.21v-34.11c0-.84.46-1.6,1.23-2.21v-1.29l.41-.04c14.12-.96,26.64-13.16,28.66-23.38,1.86-9.41-4.12-25.37-6.63-32.82-1.35-4-2.76-7.3-3.38-9.41h.64Z"/><path class="cls-3" d="m157.55,77.45c0-.84-.46-1.6-1.23-2.21v-1.12l-.24-.05c-13.65-1.44-26.7-13.15-28.79-23.7-.26-1.31-.38-2.74-.39-4.25,0,0,.68,7.48,7.59,14.06s12.53,8.97,16.51,10.05,5.24,1.04,5.24,1.04v1.1s1.2.94,1.22,1.96.1,3.12.1,3.12"/><path class="cls-3" d="m183.26,117.61c.01-.27-47.73-.24-47.73,0,0,1.79-.27,2.95,1.17,2.95h45.4c1.44,0,1.13-2.3,1.17-2.95Z"/><path class="cls-2" d="m0,124h7.44c2.98,0,5.27.36,6.88,1.07s2.87,1.8,3.8,3.28c.92,1.47,1.38,3.1,1.38,4.88,0,1.68-.41,3.2-1.23,4.57s-2.03,2.48-3.62,3.33c1.98.68,3.5,1.46,4.55,2.35s1.87,1.97,2.46,3.24.89,2.65.89,4.14c0,3.03-1.11,5.59-3.33,7.68-2.22,2.09-5.18,3.14-8.89,3.14H0v-37.66Zm3.68,3.68v12.06h2.16c2.61,0,4.53-.25,5.75-.74s2.2-1.26,2.92-2.3c.72-1.04,1.08-2.21,1.08-3.49,0-1.73-.6-3.08-1.8-4.06s-3.12-1.47-5.74-1.47H3.68Zm0,15.85v14.45h4.67c2.74,0,4.75-.27,6.03-.81s2.31-1.38,3.09-2.51c.78-1.13,1.17-2.38,1.17-3.73,0-1.66-.55-3.12-1.64-4.37-1.09-1.25-2.6-2.11-4.51-2.56-1.29-.31-3.51-.46-6.68-.46h-2.13Z"/><path class="cls-2" d="m45.36,124l17.55,37.66h-4.01l-5.92-12.42h-16.25l-5.87,12.42h-4.22l17.8-37.66h.91Zm-.46,7.97l-6.5,13.66h12.9l-6.4-13.66Z"/><path class="cls-2" d="m68.93,124h7.49c4.18,0,7.02.17,8.51.51,2.24.51,4.06,1.6,5.46,3.29,1.41,1.69,2.11,3.75,2.11,6.21,0,2.07-.48,3.87-1.45,5.41s-2.35,2.71-4.15,3.52c-1.8.8-4.28,1.21-7.43,1.21l13.54,17.52h-4.62l-13.54-17.52h-2.16v17.52h-3.76v-37.66Zm3.76,3.68v12.8l6.48.05c2.51,0,4.36-.24,5.57-.71s2.15-1.24,2.82-2.29c.67-1.05,1-2.23,1-3.53s-.34-2.4-1.03-3.43c-.69-1.03-1.58-1.77-2.68-2.22-1.1-.45-2.95-.67-5.54-.67h-6.63Z"/><path class="cls-4" d="m118.48,123.04c5.69,0,10.45,1.9,14.29,5.71,3.83,3.81,5.75,8.5,5.75,14.07s-1.91,10.18-5.74,14.02c-3.83,3.84-8.49,5.76-13.99,5.76s-10.3-1.91-14.15-5.73-5.77-8.44-5.77-13.88c0-3.61.87-6.96,2.62-10.06,1.74-3.1,4.13-5.52,7.16-7.28,3.03-1.75,6.31-2.63,9.83-2.63Zm.15,3.71c-2.78,0-5.41.72-7.91,2.17s-4.44,3.4-5.83,5.87c-1.39,2.46-2.08,5.2-2.08,8.22,0,4.47,1.55,8.25,4.63,11.33,3.09,3.08,6.82,4.62,11.19,4.62,2.91,0,5.61-.71,8.1-2.13,2.49-1.42,4.43-3.36,5.82-5.8,1.39-2.45,2.08-5.18,2.08-8.19s-.69-5.68-2.08-8.1c-1.39-2.42-3.34-4.36-5.87-5.8-2.52-1.45-5.21-2.17-8.05-2.17Z"/><path class="cls-4" d="m138.34,124.84l6.27-.59,15.11,28.86,14.9-28.85,6.23.72-20.73,36.7h-.81l-20.98-36.83Z"/><path class="cls-4" d="m182.81,124h21.59v3.71h-17.83v11.78h17.68v3.66h-17.68v14.78h17.68v3.73h-21.43v-37.66Z"/><path class="cls-2" d="m214.2,156.03c.86,0,1.6.31,2.22.93.62.62.93,1.37.93,2.25s-.31,1.6-.93,2.22c-.62.62-1.36.93-2.22.93s-1.63-.31-2.24-.93-.91-1.36-.91-2.22.3-1.63.91-2.25c.61-.62,1.35-.93,2.24-.93Z"/><path class="cls-4" d="m225.4,124h7.44c2.98,0,5.27.36,6.88,1.07s2.87,1.8,3.8,3.28c.92,1.47,1.38,3.1,1.38,4.88,0,1.68-.41,3.2-1.23,4.57s-2.03,2.48-3.62,3.33c1.98.68,3.5,1.46,4.55,2.35s1.87,1.97,2.46,3.24.89,2.65.89,4.14c0,3.03-1.11,5.59-3.33,7.68-2.22,2.09-5.18,3.14-8.89,3.14h-10.34v-37.66Zm3.68,3.68v12.06h2.16c2.61,0,4.53-.25,5.75-.74s2.2-1.26,2.92-2.3c.72-1.04,1.08-2.21,1.08-3.49,0-1.73-.6-3.08-1.8-4.06-1.2-.98-3.12-1.47-5.74-1.47h-4.37Zm0,15.85v14.45h4.67c2.74,0,4.75-.27,6.03-.81,1.28-.54,2.31-1.38,3.09-2.51.78-1.13,1.17-2.38,1.17-3.73,0-1.66-.55-3.12-1.64-4.37-1.09-1.25-2.6-2.11-4.51-2.56-1.29-.31-3.51-.46-6.68-.46h-2.13Z"/><path class="cls-4" d="m291.68,130.33l-2.92,2.77c-2.1-2.07-4.4-3.63-6.89-4.7-2.5-1.07-4.94-1.6-7.33-1.6-2.95,0-5.75.73-8.42,2.18-2.67,1.46-4.74,3.42-6.21,5.89-1.47,2.47-2.21,5.1-2.21,7.87s.76,5.54,2.29,8.09,3.63,4.55,6.31,5.99c2.68,1.45,5.62,2.17,8.8,2.17,3.86,0,7.13-1.09,9.82-3.28,2.68-2.18,4.28-5.01,4.79-8.48h-12.01v-3.63h16.2c-.03,5.82-1.76,10.45-5.17,13.87-3.41,3.42-8,5.13-13.75,5.13-6.94,0-12.44-2.37-16.51-7.11-3.13-3.66-4.7-7.88-4.7-12.67,0-3.57.89-6.89,2.68-9.96,1.79-3.06,4.25-5.47,7.38-7.21,3.13-1.74,6.67-2.62,10.62-2.62,3.18,0,6.18.58,8.99,1.74,2.81,1.16,5.56,3.01,8.25,5.55Z"/><path class="cls-3" d="m161.1,77.45c0-.84.46-1.6,1.23-2.21v-1.12l.24-.05c13.65-1.44,26.7-13.15,28.79-23.7.26-1.31.38-2.74.39-4.25,0,0-.68,7.48-7.59,14.06s-12.53,8.97-16.51,10.05-5.24,1.04-5.24,1.04v1.1s-1.2.94-1.22,1.96-.1,3.12-.1,3.12"/><path class="cls-1" d="m184.49,14.49c-2.51-7.45-3.74-12.16-3.74-12.16,0-1.29-9.81-2.33-21.91-2.33s-21.91,1.04-21.91,2.33c0,0-1.23,4.71-3.74,12.16-2.51,7.45-7.78,23.34-5.91,32.76,2.23,11.26,16.65,24.81,31.26,24.54s29.92-10.65,33.2-24.85c2.55-11.04-4.75-24.99-7.26-32.45Z"/><path class="cls-1" d="m183.26,114.47c0-1.63-9.85-2.95-11.29-2.95h-25.16c-1.44,0-11.29,1.32-11.29,2.95s-.27,2.95,1.17,2.95h45.4c1.44,0,1.17-1.32,1.17-2.95Z"/><path class="cls-1" d="m162.48,72.11v-1.29h-6.16v1.29c.77.6,1.23,1.37,1.23,2.21v34.11c0,.84-.46,1.6-1.23,2.21v1.17h6.16v-1.17c-.77-.6-1.23-1.37-1.23-2.21v-34.11c0-.84.46-1.6,1.23-2.21Z"/></g></svg>